<svg width="33" height="35" viewBox="0 0 33 35" fill="none" xmlns="http://www.w3.org/2000/svg">
<g clip-path="url(#clip0_666_44)">
<path d="M9.15989 2.6928C9.1225 2.62065 9.09969 2.54185 9.09276 2.46088C9.08583 2.37992 9.09493 2.29839 9.11952 2.22094C9.14411 2.14349 9.18372 2.07165 9.23609 2.00952C9.28845 1.94738 9.35255 1.89617 9.42471 1.85882C11.639 0.732831 14.0986 0.175598 16.582 0.237354C19.0653 0.299111 21.4942 0.977916 23.6498 2.21257C23.7205 2.25323 23.7824 2.30749 23.8321 2.37221C23.8817 2.43694 23.918 2.51085 23.9389 2.58968C23.9599 2.66851 23.965 2.75071 23.954 2.83152C23.943 2.91234 23.9161 2.99018 23.8748 3.06055L16.7537 15.2818C16.6994 15.3754 16.6214 15.4531 16.5276 15.507C16.4337 15.5609 16.3274 15.5892 16.2192 15.589H16.2034C16.0926 15.5861 15.9845 15.5535 15.8905 15.4947C15.7965 15.4359 15.72 15.353 15.6688 15.2546L9.15989 2.6928ZM15.8372 18.8484V18.8471L9.32797 6.28535C9.25238 6.13992 9.12231 6.0303 8.96618 5.98043C8.81004 5.93056 8.64052 5.94448 8.49462 6.01917C6.75984 6.90867 5.21782 8.13201 3.95704 9.61899C2.69627 11.106 1.74156 12.8273 1.14773 14.6842C0.553889 16.541 0.332611 18.4969 0.496593 20.4395C0.660575 22.3822 1.20659 24.2733 2.10329 26.0043C3 27.7354 4.22974 29.2723 5.72194 30.5269C7.21414 31.7815 8.93942 32.729 10.7987 33.3151C12.6581 33.9013 14.6149 34.1144 16.5568 33.9424C18.4987 33.7703 20.3875 33.2164 22.1148 32.3125C22.2599 32.2366 22.3691 32.1063 22.4185 31.9501C22.4679 31.794 22.4535 31.6247 22.3785 31.4791L15.8372 18.8484ZM23.4672 30.7219L23.5167 30.821C23.5915 30.9671 23.7204 31.0782 23.8759 31.1306C23.9397 31.1518 24.0071 31.1602 24.0741 31.1554C24.1721 31.1527 24.2687 31.1317 24.359 31.0935C24.5845 30.9817 24.8036 30.8577 25.0155 30.7219C25.6455 30.3564 26.246 29.9422 26.8115 29.4832H22.8231L23.4672 30.7219ZM22.179 28.2446H28.1616C28.5463 27.8581 28.9023 27.4441 29.2269 27.006H21.5349L22.179 28.2446ZM20.9032 25.7673H30.1063C30.36 25.3696 30.5876 24.9559 30.7876 24.5287H20.2591L20.9032 25.7673ZM19.615 23.29H31.3326C31.4969 22.8857 31.6375 22.4721 31.7537 22.0514H18.9709L19.615 23.29ZM18.3268 20.8127H32.0634C32.1377 20.404 32.1996 19.9952 32.2368 19.5741H17.6951L18.3268 20.8127ZM24.9659 5.15633C24.8964 5.1131 24.8185 5.08521 24.7373 5.07453C24.6561 5.06385 24.5736 5.07062 24.4953 5.0944C24.415 5.11272 24.3395 5.1475 24.2734 5.19654C24.2073 5.24558 24.1521 5.30781 24.1113 5.37928L23.7768 5.94906H26.1674C25.7814 5.66352 25.3803 5.3989 24.9659 5.15633ZM27.6662 7.1877H23.0584L22.34 8.42634H28.8429C28.4764 7.98973 28.0834 7.57607 27.6662 7.1877ZM29.7719 9.66498H21.6092L20.8908 10.9036H30.5274C30.3039 10.4741 30.0515 10.0603 29.7719 9.66498ZM31.122 12.1423H20.1724L19.454 13.3809H31.6051C31.4678 12.9592 31.3065 12.5456 31.122 12.1423ZM31.9519 14.6195H18.7232L18.0048 15.8582H32.1748C32.1257 15.4412 32.0512 15.0275 31.9519 14.6195ZM32.2987 17.0968H17.2864L16.9891 17.6047C16.9354 17.6941 16.906 17.796 16.9039 17.9003C16.9017 18.0046 16.9268 18.1076 16.9767 18.1992L17.051 18.3355H32.3235C32.3359 18.2116 32.3359 18.0754 32.3359 17.9515C32.3359 17.6666 32.3235 17.3817 32.2987 17.0968Z" fill="white"/>
<path d="M8.87531 5.40696C8.64826 4.97673 8.11388 4.80993 7.69705 5.06072C4.39718 7.04608 1.93179 10.182 0.788376 13.8808C-0.441993 17.861 -0.0408669 22.1669 1.90351 25.8512C3.84789 29.5356 7.17625 32.2967 11.1564 33.5271C14.8552 34.6705 18.8354 34.4049 22.3366 32.801C22.7789 32.5985 22.9427 32.0632 22.7157 31.6329L15.7955 18.52L8.87531 5.40696Z" fill="white"/>
</g>
<defs>
<clipPath id="clip0_666_44">
<rect width="32.745" height="34.8351" fill="white" transform="translate(-0.191162 -0.319336)"/>
</clipPath>
</defs>
</svg>
